<?xml version="1.0" encoding="UTF-8" standalone="no"?><!DOCTYPE svg PUBLIC "-//W3C//DTD SVG 1.1//EN" "http://www.w3.org/Graphics/SVG/1.1/DTD/svg11.dtd">
<svg height="100%" style="fill-rule:evenodd;clip-rule:evenodd;stroke-linecap:round;stroke-linejoin:round;" xmlns:xlink="http://www.w3.org/1999/xlink" xmlns="http://www.w3.org/2000/svg" xml:space="preserve" width="100%" xmlns:vectornator="http://vectornator.io" version="1.1" viewBox="0 0 46 46">
<defs>
<linearGradient y1="75" id="LinearGradient" x1="1732.8" y2="75" x2="1778.8" gradientUnits="userSpaceOnUse" gradientTransform="matrix(1 0 0 1 -1732.8 -52)">
<stop stop-color="#833fff" offset="0"/>
<stop stop-color="#03ffee" offset="1"/>
</linearGradient>
</defs>
<g id="Layer 1" vectornator:layerName="Layer 1">
<path d="M30.2393+0L25.8613+1.72109L26.6431+5.50748C26.3382+5.81259+26.0138+6.16463+25.6737+6.54014L21.9211+5.69524L20.0761+10.0136L23.2658+12.1415C23.2306+12.6696+23.2306+13.2094+23.2658+13.7374L19.9823+15.7401L21.7022+20.1211L25.3922+19.3701C25.7245+19.769+26.088+20.1328+26.4867+20.4653L25.6424+24.1578L29.9891+26.0041L32.1156+22.8122C32.6472+22.8474+33.1475+22.8474+33.6791+22.8122L35.7118+26.098L40.0897+24.3769L39.2454+20.3714C39.6402+20.0429+39.9803+19.6673+40.3086+19.2762L44.1237+20.2463L46+15.8653L42.6852+13.8313C42.7165+13.3111+42.7165+12.8182+42.6852+12.298L45.9687+10.2639L44.2488+5.88299L40.4337+6.72789C40.1054+6.33282+39.734+5.96122+39.3392+5.63265L40.1835+1.94014L35.8368+0.0938776L33.8042+3.28571C33.2804+3.23486+32.7527+3.20748+32.2407+3.25442L30.2393+0ZM33.0224+8.94966C35.2349+8.94966+37.0252+10.7412+37.0252+12.9551C37.0252+15.169+35.2349+16.9605+33.0224+16.9605C30.81+16.9605+29.0197+15.169+29.0197+12.9551C29.0197+10.7412+30.81+8.94966+33.0224+8.94966ZM11.5391+17.9619L10.9137+21.9673C10.3625+22.1434+9.80353+22.3937+9.25629+22.6871L5.91027+20.2463L2.40789+23.751L4.72196+27.1306C4.44443+27.6782+4.22553+28.2298+4.03399+28.7891L0+29.5401L0+34.4218L4.00272+35.1415C4.17862+35.6969+4.42488+36.2798+4.72196+36.8313L2.2828+40.0857L5.78518+43.5905L9.16247+41.2748C9.70581+41.5526+10.2648+41.7716+10.8199+41.9633L11.4453+46L16.3549+46L17.0741+41.9946C17.6331+41.8185+18.2116+41.5721+18.7627+41.2748L22.1088+43.7156L25.6111+40.2109L23.2033+36.8313C23.4769+36.2876+23.6684+35.7282+23.86+35.1728L28.019+34.4218L28.019+29.5088L23.9225+28.883C23.7466+28.3315+23.4964+27.7682+23.2033+27.2245L25.6111+23.8762L22.14+20.2463L18.7315+22.6871C18.196+22.4133+17.6565+22.1903+17.1054+21.9986L16.4799+17.9619L11.5391+17.9619ZM14.0095+27.9755C16.2102+27.9755+18.0122+29.7787+18.0122+31.981C18.0122+34.1832+16.2102+35.9864+14.0095+35.9864C11.8088+35.9864+10.0068+34.1832+10.0068+31.981C10.0068+29.7787+11.8088+27.9755+14.0095+27.9755Z" opacity="1" fill="url(#LinearGradient)"/>
</g>
</svg>
