<?xml version="1.0" encoding="UTF-8" standalone="no"?> <!-- Created with Vectornator for iOS (http://vectornator.io/) --><!DOCTYPE svg PUBLIC "-//W3C//DTD SVG 1.1//EN" "http://www.w3.org/Graphics/SVG/1.1/DTD/svg11.dtd">
<svg height="100%" style="fill-rule:evenodd;clip-rule:evenodd;stroke-linecap:round;stroke-linejoin:round;" xmlns:xlink="http://www.w3.org/1999/xlink" xmlns="http://www.w3.org/2000/svg" xml:space="preserve" width="100%" xmlns:vectornator="http://vectornator.io" version="1.1" viewBox="0 0 6000 6000">
<metadata>
<vectornator:setting key="DisplayWhiteBackground" value="0"/>
<vectornator:setting key="RulersVisible" value="1"/>
<vectornator:setting key="SnapToEdges" value="1"/>
<vectornator:setting key="Units" value="Pixels"/>
<vectornator:setting key="DynamicGuides" value="1"/>
<vectornator:setting key="SnapToPoints" value="1"/>
<vectornator:setting key="SnapToGrid" value="0"/>
<vectornator:setting key="SnapToGuides" value="1"/>
<vectornator:setting key="ShowGrid" value="0"/>
<vectornator:setting key="GridSpacing" value="36"/>
</metadata>
<defs>
<linearGradient y1="50.8314" id="LinearGradient" x1="37.1474" y2="19.2277" x2="63.3271" gradientUnits="userSpaceOnUse" gradientTransform="matrix(145.714 0 0 147.384 -4670.84 -2523.5)">
<stop stop-color="#0d3670" offset="0"/>
<stop stop-color="#d62767" offset="0.501006"/>
<stop stop-color="#0b54a9" offset="1"/>
</linearGradient>
<linearGradient y1="36.1972" id="LinearGradient_2" x1="68.8901" y2="57.3465" x2="62.9232" gradientUnits="userSpaceOnUse" gradientTransform="matrix(145.714 0 0 147.384 -4670.84 -2523.5)">
<stop stop-opacity="0.961889" stop-color="#666670" offset="0"/>
<stop stop-color="#094285" offset="1"/>
</linearGradient>
</defs>
<g id="Layer 1" vectornator:layerName="Layer 1">
<path d="M4005.7+5332.36C4191.77+5618.27+4508.89+5810.27+4868.69+5816.71C4874.68+5816.71+4880.67+5816.71+4886.66+5816.71C5345.67+5816.71+5750.02+5507.69+5896.41+5042.66C6055.53+4537.86+5778.85+4125.09+5485.7+3688.08C5469.97+3664.98+5454.62+3641.88+5439.27+3618.78M5439.27+3618.78C5515.27+3362.4+5559.08+3092.4+5559.08+2811.41C5559.08+2170.28+5345.3+1578.77+4987+1105.4C5013.21+1085.71+5039.79+1065.26+5063.37+1041.78L5120.66+983.463C5195.54+908.103+5195.54+785.028+5120.66+709.669L4714.06+298.409C4639.55+222.671+4517.88+222.671+4443+298.409L4383.84+357.485C4352.02+389.674+4324.31+424.514+4299.6+462.004C3862.3+171.547+3340.76+0+2779.54+0C1247.12+0+0+1261.42+0+2811.41C0+4361.39+1247.12+5622.82+2779.54+5622.82C3219.83+5622.82+3635.42+5517.54+4005.7+5332.36M2779.54+193.89C3310.06+193.89+3802.77+358.243+4213.86+636.581L3879.9+1425.02C3864.55+1461.37+3872.79+1503.79+3900.12+1531.43C3918.46+1549.99+3943.17+1560.21+3968.26+1560.21C3980.99+1560.21+3993.72+1557.56+4006.07+1552.26L4263.66+1440.54C4572.91+1782.12+4757.49+2218+4786.32+2684.17C4779.95+2694.77+4775.09+2706.51+4772.47+2719.01C4697.59+3076.87+4489.42+3387.78+4287.99+3688.46C4100.79+3967.93+3923.7+4235.67+3859.31+4526.12C3547.06+4728.35+3177.15+4847.26+2779.54+4847.26C1669.82+4847.26+766.77+3933.85+766.77+2811.41C766.77+1688.97+1669.82+775.561+2779.54+775.561C2880.63+775.561+2981.72+783.135+3080.56+798.282C3134.47+805.856+3182.02+769.502+3189.88+716.485C3197.74+663.847+3161.43+614.238+3109.01+606.664C3001.18+590.002+2889.99+581.671+2779.54+581.671C1563.87+581.671+575.077+1581.8+575.077+2811.41C575.077+4041.02+1563.87+5041.15+2779.54+5041.15C3161.05+5041.15+3519.73+4941.55+3832.72+4768.49C3835.35+4907.47+3863.8+5040.01+3914.72+5161.95C3571.77+5331.98+3186.89+5428.93+2779.54+5428.93C1352.7+5428.93+191.692+4254.6+191.692+2811.41C191.692+1368.21+1352.7+193.89+2779.54+193.89ZM4578.15+435.496L4985.13+846.755L4927.47+904.316C4884.41+948.244+4833.87+982.705+4777.33+1007.32L4150.22+1278.84L4417.91+646.806C4441.87+590.002+4475.94+538.5+4519.37+494.95L4578.15+435.496ZM3513.74+715.728C3476.3+717.621+3441.85+741.479+3428+778.969C3409.28+829.335+3434.36+885.003+3484.16+903.937C3552.3+929.688+3619.69+959.226+3685.59+992.551C3699.44+999.746+3714.04+1003.15+3728.64+1003.15C3763.46+1003.15+3797.16+983.842+3814.38+949.759C3837.97+902.423+3818.87+843.725+3771.7+819.489C3700.19+783.135+3625.68+750.189+3551.18+721.787C3538.82+717.242+3526.09+715.349+3513.74+715.728ZM2779.54+1163.34C2726.37+1163.34+2683.69+1206.51+2683.69+1260.29L2683.69+1648.07C2683.69+1701.84+2726.37+1745.01+2779.54+1745.01C2832.7+1745.01+2875.39+1701.84+2875.39+1648.07L2875.39+1260.29C2875.39+1206.51+2832.7+1163.34+2779.54+1163.34ZM4815.15+1201.59C5159.6+1646.55+5367.39+2203.99+5367.39+2811.41C5367.39+3014.77+5342.68+3211.69+5298.87+3401.79C5167.08+3188.21+5052.14+2964.78+5000.48+2719.01C4996.73+2700.83+4987.75+2685.68+4977.64+2672.05C4947.31+2183.92+4761.61+1726.46+4449.36+1360.26L4815.15+1201.59ZM2180.13+1286.42C2167.4+1286.79+2155.04+1289.07+2143.06+1293.99C2094.01+1315.2+2071.55+1372+2092.14+1421.23L2241.9+1778.34C2257.25+1815.45+2292.82+1837.41+2330.26+1837.41C2342.99+1837.41+2355.35+1835.14+2367.7+1829.84C2416.37+1809.01+2439.21+1751.83+2418.62+1702.6L2268.86+1345.49C2253.13+1308.76+2217.19+1286.42+2180.13+1286.42ZM3378.95+1286.42C3341.89+1286.42+3305.94+1308.76+3290.22+1345.49L3140.46+1702.6C3119.87+1751.83+3142.71+1809.01+3191.38+1829.84C3203.73+1835.14+3216.46+1837.41+3228.82+1837.41C3266.26+1837.41+3301.83+1815.45+3317.18+1778.34L3466.94+1421.23C3487.9+1372+3465.06+1315.2+3416.02+1293.99C3404.04+1289.07+3391.68+1286.79+3378.95+1286.42ZM1695.28+1617.77C1670.94+1617.77+1646.23+1627.24+1627.51+1646.17C1590.07+1684.04+1590.07+1745.39+1627.51+1783.26L1898.58+2057.43C1917.3+2076.37+1941.63+2085.83+1966.34+2085.83C1991.05+2085.83+2015.39+2076.37+2034.11+2057.43C2071.55+2019.56+2071.55+1958.22+2034.11+1920.35L1763.05+1646.17C1744.33+1627.24+1719.62+1617.77+1695.28+1617.77ZM3863.8+1617.77C3839.46+1617.77+3814.75+1627.24+3796.03+1646.17L3524.97+1920.35C3487.53+1958.22+3487.53+2019.56+3524.97+2057.43C3543.69+2076.37+3568.02+2085.83+3592.73+2085.83C3617.45+2085.83+3641.78+2076.37+3660.5+2057.43L3931.57+1783.26C3969.01+1745.39+3969.01+1684.04+3931.57+1646.17C3912.85+1627.24+3888.14+1617.77+3863.8+1617.77ZM1368.43+2108.56C1330.99+2108.18+1295.42+2130.52+1279.7+2167.63C1259.1+2216.86+1281.57+2273.67+1330.24+2294.87L1683.3+2446.35C1695.65+2451.27+1708.38+2453.92+1720.74+2453.92C1758.18+2453.92+1793.75+2431.58+1809.1+2394.85C1830.06+2345.24+1807.22+2288.43+1758.18+2267.61L1405.12+2116.13C1393.14+2110.83+1380.78+2108.56+1368.43+2108.56ZM4190.65+2108.56C4178.3+2108.56+4165.94+2110.83+4153.96+2116.13L3800.9+2267.61C3751.85+2288.43+3729.39+2345.24+3749.98+2394.85C3765.33+2431.58+3800.9+2453.92+3838.34+2453.92C3851.07+2453.92+3863.43+2451.27+3875.78+2446.35L4228.84+2294.87C4277.51+2273.67+4300.35+2216.86+4279.76+2167.63C4264.03+2130.52+4228.09+2108.18+4190.65+2108.56ZM2204.46+2326.68C2151.3+2326.68+2108.62+2369.85+2108.62+2423.63C2108.62+2477.4+2151.3+2520.57+2204.46+2520.57L2492+2520.57L2492+2714.46L2300.31+2714.46C2247.14+2714.46+2204.46+2757.63+2204.46+2811.41C2204.46+2865.18+2247.14+2908.35+2300.31+2908.35L2492+2908.35L2492+3102.24L2204.46+3102.24C2151.3+3102.24+2108.62+3145.41+2108.62+3199.19C2108.62+3252.96+2151.3+3296.13+2204.46+3296.13L2492+3296.13C2597.58+3296.13+2683.69+3209.03+2683.69+3102.24L2683.69+2908.35C2683.69+2872.76+2673.58+2840.19+2657.11+2811.41C2673.58+2782.63+2683.69+2750.06+2683.69+2714.46L2683.69+2520.57C2683.69+2413.78+2597.58+2326.68+2492+2326.68L2204.46+2326.68ZM2971.23+2326.68C2918.07+2326.68+2875.39+2369.85+2875.39+2423.63C2875.39+2477.4+2918.07+2520.57+2971.23+2520.57L3260.64+2520.57L3260.64+3199.19C3260.64+3252.96+3303.7+3296.13+3356.49+3296.13C3409.65+3296.13+3452.34+3252.96+3452.34+3199.19L3452.34+2520.57C3452.34+2413.78+3366.6+2326.68+3260.64+2326.68L2971.23+2326.68ZM1246+2714.46C1192.84+2714.46+1150.15+2757.63+1150.15+2811.41C1150.15+2865.18+1192.84+2908.35+1246+2908.35L1629.39+2908.35C1682.55+2908.35+1725.23+2865.18+1725.23+2811.41C1725.23+2757.63+1682.55+2714.46+1629.39+2714.46L1246+2714.46ZM3929.69+2714.46C3876.53+2714.46+3833.85+2757.63+3833.85+2811.41C3833.85+2865.18+3876.53+2908.35+3929.69+2908.35L4313.08+2908.35C4366.24+2908.35+4408.92+2865.18+4408.92+2811.41C4408.92+2757.63+4366.24+2714.46+4313.08+2714.46L3929.69+2714.46ZM4886.66+3012.11C4992.61+3298.03+5161.84+3550.99+5326.95+3797.14C5604.76+4211.05+5844.75+4568.92+5713.71+4983.58C5592.78+5367.58+5261.81+5622.82+4886.66+5622.82C4881.42+5622.82+4876.55+5622.82+4871.68+5622.82C4404.06+5614.49+4023.67+5222.92+4023.67+4749.17C4023.67+4428.42+4229.21+4122.06+4446.36+3797.14C4611.47+3550.99+4780.7+3298.41+4886.66+3012.11ZM1720.36+3168.89C1708.01+3169.27+1695.28+3171.54+1683.3+3176.47L1330.24+3327.94C1281.57+3349.15+1258.73+3405.95+1279.32+3455.18C1295.05+3492.3+1330.61+3514.26+1367.68+3514.26C1380.41+3514.26+1393.14+3511.99+1405.12+3506.69L1758.18+3355.21C1807.22+3334.38+1829.69+3277.58+1809.1+3227.97C1793.37+3191.24+1757.8+3168.89+1720.36+3168.89ZM1821.08+3877.8C1767.91+3877.8+1725.23+3920.98+1725.23+3974.75C1725.23+4028.52+1767.91+4071.69+1821.08+4071.69L3738+4071.69C3791.17+4071.69+3833.85+4028.52+3833.85+3974.75C3833.85+3920.98+3791.17+3877.8+3738+3877.8L1821.08+3877.8ZM2204.46+4265.58C2151.3+4265.58+2108.62+4308.76+2108.62+4362.53C2108.62+4416.3+2151.3+4459.48+2204.46+4459.48L3354.62+4459.48C3407.78+4459.48+3450.46+4416.3+3450.46+4362.53C3450.46+4308.76+3407.78+4265.58+3354.62+4265.58L2204.46+4265.58Z" opacity="1" fill="url(#LinearGradient)"/>
<path d="M4886.53+2634.93C5023.1+3003.46+5241.23+3329.52+5454.05+3646.79C5812.13+4180.31+6121.46+4641.57+5952.56+5176.06C5796.68+5671.01+5370.08+6000+4886.53+6000C4879.78+6000+4873.5+6000+4867.23+6000C4264.48+5989.26+3774.18+5484.55+3774.18+4873.92C3774.18+4460.48+4039.12+4065.6+4319.02+3646.79C4531.84+3329.52+4749.96+3003.95+4886.53+2634.93Z" opacity="1" fill="url(#LinearGradient_2)"/>
</g>
</svg>
