<?xml version="1.0" encoding="UTF-8" standalone="no"?> <!-- Created with Vectornator for iOS (http://vectornator.io/) --><!DOCTYPE svg PUBLIC "-//W3C//DTD SVG 1.1//EN" "http://www.w3.org/Graphics/SVG/1.1/DTD/svg11.dtd">
<svg height="100%" style="fill-rule:evenodd;clip-rule:evenodd;stroke-linecap:round;stroke-linejoin:round;" xmlns:xlink="http://www.w3.org/1999/xlink" xmlns="http://www.w3.org/2000/svg" xml:space="preserve" width="100%" xmlns:vectornator="http://vectornator.io" version="1.1" viewBox="0 0 104.895 73.71">
<metadata>
<vectornator:setting key="DisplayWhiteBackground" value="0"/>
<vectornator:setting key="RulersVisible" value="1"/>
<vectornator:setting key="SnapToEdges" value="1"/>
<vectornator:setting key="Units" value="Millimeters"/>
<vectornator:setting key="DynamicGuides" value="1"/>
<vectornator:setting key="SnapToPoints" value="1"/>
<vectornator:setting key="SnapToGrid" value="0"/>
<vectornator:setting key="SnapToGuides" value="1"/>
<vectornator:setting key="ShowGrid" value="0"/>
<vectornator:setting key="GridSpacing" value="36"/>
</metadata>
<defs/>
<g id="Layer 1" vectornator:layerName="Layer 1">
<path stroke="#000000" stroke-width="0.6" d="M45.3355+46.6283C39.376+43.9542+35.0464+38.1208+35.0464+31.355C35.0464+22.0592+42.8471+14.5234+52.4699+14.5234C62.0926+14.5234+69.8933+22.0592+69.8933+31.355C69.8933+37.4622+65.3923+43.6783+60.3537+46.6283" fill="none" stroke-linecap="round" opacity="1" stroke-linejoin="round"/>
<path d="M34.3814+50.355L70.5136+50.355L70.5136+55.355L34.3814+55.355L34.3814+50.355Z" opacity="1" fill="#b0bec5"/>
<path d="M49.4365+43.355L55.4585+43.355L55.4585+50.355L49.4365+50.355L49.4365+43.355Z" opacity="1" fill="#455a64"/>
<path d="M63.5389+31.355C63.5389+37.4605+58.5754+42.4058+52.4475+42.4058C46.3196+42.4058+41.3561+37.4605+41.3561+31.355C41.3561+25.2495+46.3196+20.3042+52.4475+20.3042C58.5754+20.3042+63.5389+25.2495+63.5389+31.355Z" opacity="1" fill="#eeeeee"/>
<path d="M46.0256+36.2964L43.2341+39.0777C43.6693+39.5933+44.1476+40.0698+44.6651+40.5073L47.4605+37.7222L46.0256+36.2964Z" opacity="1" fill="#90a4ae"/>
<path d="M44.3711+30.355L40.4544+30.355C40.427+30.6831+40.4034+31.0152+40.4034+31.355C40.4034+31.6987+40.427+32.0386+40.4544+32.3745L44.3672+32.3745L44.3672+30.355L44.3711+30.355Z" opacity="1" fill="#90a4ae"/>
<path d="M46.006+26.4019L47.4409+24.9761L44.6612+22.2066C44.1476+22.6441+43.6654+23.1206+43.2302+23.6362L46.006+26.4019Z" opacity="1" fill="#90a4ae"/>
<path d="M53.4316+19.4058C53.1062+19.3784+52.7808+19.355+52.4475+19.355C52.0946+19.355+51.7496+19.3784+51.4046+19.4097L51.4046+23.3589L53.4316+23.3589L53.4316+19.4058Z" opacity="1" fill="#90a4ae"/>
<path d="M58.1245+37.0112L60.963+39.8394C63.1429+37.6675+64.4916+34.6675+64.4916+31.355C64.4916+28.1636+63.2331+25.273+61.1944+23.1245L58.2813+25.8667C59.6379+27.3003+60.4769+29.2261+60.4769+31.355C60.4769+33.5659+59.5791+35.5659+58.1245+37.0112Z" opacity="1" fill="#ff1744"/>
<path d="M51.189+29.2066C49.9971+29.9019+49.6011+31.4292+50.3108+32.6245C51.0165+33.8159+52.5573+34.2183+53.7491+33.5191C54.941+32.8277+55.3331+31.2964+54.6234+30.105C53.9177+28.9136+52.3809+28.5073+51.189+29.2066" opacity="1" fill="#263238"/>
<path d="M59.4732+24.7495L54.0432+31.9175L51.9731+29.7808L59.4732+24.7495Z" opacity="1" fill="#263238"/>
<path d="M52.4475+17.355C44.6886+17.355+38.3961+23.6245+38.3961+31.355C38.3961+39.0855+44.6886+45.355+52.4475+45.355C60.2064+45.355+66.4989+39.0855+66.4989+31.355C66.4989+23.6245+60.2064+17.355+52.4475+17.355ZM52.4475+42.355C46.351+42.355+41.4071+37.4292+41.4071+31.355C41.4071+25.2808+46.351+20.355+52.4475+20.355C58.544+20.355+63.4879+25.2808+63.4879+31.355C63.4879+37.4292+58.544+42.355+52.4475+42.355Z" opacity="1" fill="#00acc1"/>
<path d="M51.9535+30.4995C51.4791+30.7769+51.3262+31.3941+51.6046+31.8667C51.8869+32.3472+52.5063+32.5073+52.9807+32.2261C53.459+31.9487+53.6158+31.3355+53.3336+30.8589C53.0513+30.3823+52.4318+30.2222+51.9535+30.4995" opacity="1" fill="#4dd0e1"/>
<path d="M57.4659+55.355C57.4659+55.9097+57.0189+56.355+56.4622+56.355L48.4328+56.355C47.88+56.355+47.4291+55.9097+47.4291+55.355L47.4291+50.355C47.4291+49.8003+47.88+49.355+48.4328+49.355L56.4622+49.355C57.0189+49.355+57.4659+49.8003+57.4659+50.355L57.4659+55.355Z" opacity="1" fill="#78909c"/>
<path stroke="#000000" stroke-width="0.5" d="M44.4333+48.6584C37.7201+45.646+32.843+39.0749+32.843+31.4535C32.843+20.9821+41.6302+12.4934+52.4699+12.4934C63.3095+12.4934+72.0968+20.9821+72.0968+31.4535C72.0968+38.3331+67.0266+45.3353+61.3508+48.6584" fill="none" stroke-linecap="round" opacity="1" stroke-linejoin="round"/>
<path stroke="#000000" stroke-width="0.4" d="M43.5727+50.5947C36.1407+47.2598+30.7413+39.985+30.7413+31.5475C30.7413+19.9548+40.4695+10.5571+52.4699+10.5571C64.4702+10.5571+74.1985+19.9548+74.1985+31.5475C74.1985+39.1637+68.5853+46.9158+62.3018+50.5947" fill="none" stroke-linecap="round" opacity="1" stroke-linejoin="round"/>
<g opacity="1">
<path d="M51.6107+38.1743L51.6107+37.5298C51.6107+37.4654+51.5905+37.4136+51.5501+37.3745C51.5098+37.3355+51.457+37.3159+51.3919+37.3159C51.3516+37.3159+51.3109+37.3268+51.2699+37.3487C51.2289+37.3705+51.1996+37.3954+51.182+37.4234L51.182+38.1743L50.9339+38.1743L50.9339+36.7388L51.182+36.6802L51.182+37.1948C51.2451+37.1376+51.332+37.1089+51.4427+37.1089C51.5736+37.1089+51.6751+37.1452+51.7474+37.2178C51.8197+37.2904+51.8558+37.3944+51.8558+37.5298L51.8558+38.1743L51.6107+38.1743Z" opacity="1" fill="#000000"/>
<path d="M52.388+37.648L52.388+38.1743L52.1341+38.1743L52.1341+36.7446C52.3034+36.7375+52.4024+36.7339+52.431+36.7339C52.6569+36.7339+52.8221+36.7686+52.9266+36.8379C53.0311+36.9072+53.0833+37.0155+53.0833+37.1626C53.0833+37.4907+52.89+37.6548+52.5033+37.6548C52.4746+37.6548+52.4362+37.6525+52.388+37.648ZM52.388+36.9644L52.388+37.4224C52.431+37.4269+52.4649+37.4292+52.4896+37.4292C52.6055+37.4292+52.6901+37.4098+52.7435+37.3711C52.7969+37.3324+52.8236+37.2694+52.8236+37.1821C52.8236+37.0337+52.7041+36.9595+52.4652+36.9595C52.4385+36.9595+52.4128+36.9611+52.388+36.9644Z" opacity="1" fill="#000000"/>
<path d="M53.7816+38.0698C53.7595+38.1063+53.7209+38.1361+53.6659+38.1592C53.6109+38.1823+53.5534+38.1939+53.4935+38.1939C53.3809+38.1939+53.2923+38.1657+53.2279+38.1094C53.1634+38.0531+53.1312+37.9732+53.1312+37.8696C53.1312+37.7486+53.1766+37.6538+53.2674+37.5855C53.3582+37.5171+53.4873+37.4829+53.6546+37.4829C53.6833+37.4829+53.7171+37.4878+53.7562+37.4976C53.7562+37.3745+53.6784+37.313+53.5228+37.313C53.431+37.313+53.3542+37.3283+53.2923+37.3589L53.2396+37.1695C53.3236+37.1291+53.4235+37.1089+53.5394+37.1089C53.6989+37.1089+53.8158+37.1452+53.89+37.2178C53.9642+37.2904+54.0013+37.4279+54.0013+37.6304L54.0013+37.854C54.0013+37.9933+54.0293+38.0809+54.0853+38.1167C54.0651+38.1519+54.0427+38.1735+54.0179+38.1817C53.9932+38.1898+53.9649+38.1939+53.933+38.1939C53.8978+38.1939+53.8662+38.1808+53.8382+38.1548C53.8102+38.1288+53.7914+38.1004+53.7816+38.0698ZM53.7582+37.6821C53.7165+37.6737+53.6852+37.6695+53.6644+37.6695C53.4717+37.6695+53.3753+37.7326+53.3753+37.8589C53.3753+37.9527+53.4297+37.9995+53.5384+37.9995C53.6849+37.9995+53.7582+37.9263+53.7582+37.7798L53.7582+37.6821Z" opacity="1" fill="#000000"/>
</g>
</g>
</svg>
