<?xml version="1.0" encoding="UTF-8" standalone="no"?> <!-- Created with Vectornator for iOS (http://vectornator.io/) --><!DOCTYPE svg PUBLIC "-//W3C//DTD SVG 1.1//EN" "http://www.w3.org/Graphics/SVG/1.1/DTD/svg11.dtd">
<svg height="100%" style="fill-rule:evenodd;clip-rule:evenodd;stroke-linecap:round;stroke-linejoin:round;" xmlns:xlink="http://www.w3.org/1999/xlink" xmlns="http://www.w3.org/2000/svg" xml:space="preserve" width="100%" xmlns:vectornator="http://vectornator.io" version="1.1" viewBox="0 0 104.895 73.71">
<metadata>
<vectornator:setting key="DisplayWhiteBackground" value="0"/>
<vectornator:setting key="RulersVisible" value="1"/>
<vectornator:setting key="SnapToEdges" value="1"/>
<vectornator:setting key="Units" value="Millimeters"/>
<vectornator:setting key="DynamicGuides" value="1"/>
<vectornator:setting key="SnapToPoints" value="1"/>
<vectornator:setting key="SnapToGrid" value="0"/>
<vectornator:setting key="SnapToGuides" value="1"/>
<vectornator:setting key="ShowGrid" value="0"/>
<vectornator:setting key="GridSpacing" value="36"/>
</metadata>
<defs>
<linearGradient y1="42.375" id="LinearGradient" x1="31.9994" y2="51.377" x2="31.9994" gradientUnits="userSpaceOnUse" gradientTransform="matrix(1 0 0 1 26.9838 4.855)">
<stop stop-color="#d5ff1a" offset="0"/>
<stop stop-color="#ff2250" offset="1"/>
</linearGradient>
<linearGradient y1="5" id="LinearGradient_2" x1="32" y2="59.5255" x2="32" gradientUnits="userSpaceOnUse" gradientTransform="matrix(1 0 0 1 26.9838 4.855)">
<stop stop-color="#1a28ff" offset="0"/>
<stop stop-color="#ff2250" offset="1"/>
</linearGradient>
<linearGradient y1="5" id="LinearGradient_3" x1="31.999" y2="59.5255" x2="31.999" gradientUnits="userSpaceOnUse" gradientTransform="matrix(1 0 0 1 26.9838 4.855)">
<stop stop-color="#d5ff1a" offset="0"/>
<stop stop-color="#ff2250" offset="1"/>
</linearGradient>
</defs>
<g id="Layer 1" vectornator:layerName="Layer 1">
<path d="M54.9828+51.855C54.9828+49.6459+56.7737+47.855+58.9828+47.855C61.1919+47.855+62.9828+49.6459+62.9828+51.855C62.9828+54.0641+61.1919+55.855+58.9828+55.855C56.7737+55.855+54.9828+54.0641+54.9828+51.855Z" opacity="1" fill="url(#LinearGradient)"/>
<path d="M64.9838+42.644L64.9838+16.855C64.9838+13.546+62.2928+10.855+58.9838+10.855C55.6748+10.855+52.9838+13.546+52.9838+16.855L52.9838+42.644C49.8848+44.66+47.9838+48.136+47.9838+51.855C47.9838+57.92+52.9188+62.855+58.9828+62.855C65.0488+62.855+69.9838+57.92+69.9838+51.855C69.9838+48.136+68.0828+44.66+64.9838+42.644ZM58.9828+60.855C54.0208+60.855+49.9838+56.818+49.9838+51.855C49.9838+48.653+51.7078+45.67+54.4828+44.07L54.9838+43.782L54.9838+34.855L56.9838+34.855L56.9838+32.855L54.9838+32.855L54.9838+30.855L58.9838+30.855L58.9838+28.855L54.9838+28.855L54.9838+26.855L56.9838+26.855L56.9838+24.855L54.9838+24.855L54.9838+22.855L56.9838+22.855L56.9838+20.855L54.9838+20.855L54.9838+18.855L58.9838+18.855L58.9838+16.855L54.9838+16.855C54.9838+14.649+56.7778+12.855+58.9838+12.855C61.1898+12.855+62.9838+14.649+62.9838+16.855L62.9838+43.782L63.4848+44.07C66.2598+45.67+67.9838+48.653+67.9838+51.855C67.9838+56.818+63.9458+60.855+58.9828+60.855Z" opacity="1" fill="url(#LinearGradient_2)"/>
<path d="M59.9838+46.956L59.9838+36.855L57.9838+36.855L57.9838+46.956C55.7038+47.42+53.9828+49.44+53.9828+51.855C53.9828+54.612+56.2258+56.855+58.9828+56.855C61.7398+56.855+63.9828+54.612+63.9828+51.855C63.9828+49.441+62.2628+47.421+59.9838+46.956ZM58.9828+54.855C57.3288+54.855+55.9828+53.509+55.9828+51.855C55.9828+50.201+57.3288+48.855+58.9828+48.855C60.6368+48.855+61.9828+50.201+61.9828+51.855C61.9828+53.509+60.6368+54.855+58.9828+54.855Z" opacity="1" fill="url(#LinearGradient_3)"/>
<g opacity="1">
<g>
<path stroke-linecap="round" stroke-width="2.5" stroke="#333333" d="M34.9112+19.9305C34.9112+19.9288+34.9112+40.2093+34.9112+40.2093" fill="none" stroke-linejoin="round"/>
<path d="M43.3787+27.0556L35.8787+17.889L34.9112+16.7065L33.9438+17.889L26.4438+27.0556C26.0066+27.59+26.0854+28.3775+26.6197+28.8146C27.154+29.2518+27.9415+29.173+28.3787+28.6387L35.8787+19.4721L33.9438+19.4721L41.4438+28.6387C41.8809+29.173+42.6685+29.2518+43.2028+28.8146C43.7371+28.3775+43.8158+27.5899+43.3787+27.0556Z" fill="#333333"/>
</g>
</g>
</g>
</svg>
