<?xml version="1.0" encoding="UTF-8" standalone="no"?> <!-- Created with Vectornator for iOS (http://vectornator.io/) --><!DOCTYPE svg PUBLIC "-//W3C//DTD SVG 1.1//EN" "http://www.w3.org/Graphics/SVG/1.1/DTD/svg11.dtd">
<svg height="100%" style="fill-rule:evenodd;clip-rule:evenodd;stroke-linecap:round;stroke-linejoin:round;" xmlns:xlink="http://www.w3.org/1999/xlink" xmlns="http://www.w3.org/2000/svg" xml:space="preserve" width="100%" xmlns:vectornator="http://vectornator.io" version="1.1" viewBox="0 0 104.895 73.71">
<metadata>
<vectornator:setting key="DisplayWhiteBackground" value="0"/>
<vectornator:setting key="RulersVisible" value="1"/>
<vectornator:setting key="SnapToEdges" value="1"/>
<vectornator:setting key="Units" value="Millimeters"/>
<vectornator:setting key="DynamicGuides" value="1"/>
<vectornator:setting key="SnapToPoints" value="1"/>
<vectornator:setting key="SnapToGrid" value="0"/>
<vectornator:setting key="SnapToGuides" value="1"/>
<vectornator:setting key="ShowGrid" value="0"/>
<vectornator:setting key="GridSpacing" value="36"/>
</metadata>
<defs>
<linearGradient y1="55.034" id="LinearGradient" x1="24.4541" y2="26.2865" x2="70.7037" gradientUnits="userSpaceOnUse" gradientTransform="matrix(1 0 0 1 0 0)">
<stop stop-color="#ef0303" offset="0"/>
<stop stop-color="#112eb7" offset="1"/>
</linearGradient>
</defs>
<g id="Layer 1" vectornator:layerName="Layer 1">
<path d="M41.4475+16.855C38.5373+16.855+36.0569+18.9253+35.6038+21.73C35.592+21.7964+35.5491+21.8511+35.5413+21.9175L35.5725+21.9175C35.5373+22.0698+35.4983+22.2105+35.4788+22.355C35.1741+22.5659+34.8811+22.7925+34.635+23.0425C33.4592+24.23+32.9631+25.7222+32.6038+26.9487C32.5998+26.9566+32.6077+26.9722+32.6038+26.98C31.3069+30.9683+28.9827+40.4097+28.4475+42.5737C27.8225+43.8784+27.4475+45.3159+27.4475+46.855C27.4475+52.3667+31.9358+56.855+37.4475+56.855C42.8342+56.855+47.217+52.5698+47.4163+47.23C48.5491+48.0659+50.1897+48.855+52.4475+48.855C54.7053+48.855+56.3459+48.0659+57.4788+47.23C57.678+52.5698+62.0608+56.855+67.4475+56.855C72.9592+56.855+77.4475+52.3667+77.4475+46.855C77.4475+45.7261+77.2639+44.648+76.9163+43.6362C76.7522+42.98+73.7991+31.2456+72.51+26.98L72.51+26.9487C72.1038+25.73+71.5647+24.2378+70.385+23.0425C70.092+22.7456+69.76+22.4722+69.385+22.23C69.3655+22.1245+69.3498+22.0269+69.3225+21.9175L69.3538+21.9175C69.3459+21.8511+69.303+21.7964+69.2913+21.73C68.8381+18.9253+66.3577+16.855+63.4475+16.855C60.1233+16.855+57.4475+19.5308+57.4475+22.855C57.4475+23.5894+57.5686+24.3003+57.7913+24.9487C57.3264+25.4878+56.9358+25.9761+56.6663+26.23C56.553+26.3355+56.5452+26.3316+56.51+26.355C55.3733+25.5191+54.0022+24.9487+52.5413+24.9487C51.0842+24.9487+49.6506+25.4722+48.5413+26.355C48.5022+26.3316+48.4983+26.3355+48.385+26.23C48.092+25.9566+47.6506+25.4214+47.135+24.8237C47.3342+24.2066+47.4475+23.5464+47.4475+22.855C47.4475+19.5308+44.7717+16.855+41.4475+16.855ZM41.4475+18.855C43.7248+18.855+45.4475+20.5777+45.4475+22.855C45.4475+22.9409+45.4202+23.0191+45.4163+23.105C44.1467+22.0152+42.5139+21.0425+40.3538+21.0425C39.385+21.0425+38.5178+21.1362+37.76+21.3237C38.3108+19.8706+39.7405+18.855+41.4475+18.855ZM63.4475+18.855C65.1389+18.855+66.5413+19.8589+67.1038+21.2925C66.4045+21.1323+65.635+21.0425+64.76+21.0425C62.5178+21.0425+60.7834+22.0855+59.4788+23.23C59.467+23.1011+59.4475+22.98+59.4475+22.855C59.4475+20.5777+61.1702+18.855+63.4475+18.855ZM40.3538+23.0425C42.3498+23.0425+43.7288+24.1167+44.885+25.3237C44.8967+25.8277+45.2873+26.2456+45.7913+26.2925C46.217+26.7886+46.6233+27.2769+47.0413+27.6675C47.3264+27.9331+47.6155+28.187+48.0725+28.3237C48.5295+28.4605+49.178+28.3589+49.5725+28.0425L49.6038+28.0112C50.2717+27.4175+51.4983+26.9487+52.5413+26.9487C53.5842+26.9487+54.6819+27.3784+55.51+28.0425L55.51+28.0112L55.5413+28.0112C55.928+28.3277+56.5647+28.4605+57.01+28.3237C57.467+28.1831+57.7288+27.9331+58.01+27.6675C58.4319+27.2691+58.8498+26.7691+59.2913+26.2612C59.6389+26.1558+59.9045+25.8667+59.9788+25.5112C61.1858+24.2261+62.6545+23.0425+64.76+23.0425C66.0764+23.0425+67.0139+23.2417+67.7288+23.5737C67.8498+23.6948+68.0022+23.7808+68.1663+23.8237C68.1975+23.8355+68.2288+23.8472+68.26+23.855C68.5295+24.0308+68.7717+24.2378+68.9788+24.4487C69.7678+25.2495+70.2131+26.3706+70.6038+27.5425C70.6077+27.5503+70.5998+27.5659+70.6038+27.5737C71.3733+30.1245+72.6545+34.9722+73.6975+39.0425C71.9827+37.6636+69.8108+36.855+67.4475+36.855C62.9163+36.855+59.0764+39.898+57.8538+44.0425C57.7795+44.105+57.717+44.1792+57.6663+44.2612C57.6663+44.2612+56.3772+46.855+52.4475+46.855C48.5178+46.855+47.2288+44.2612+47.2288+44.2612C47.178+44.1675+47.1155+44.0855+47.0413+44.0112C45.8108+39.8823+41.9709+36.855+37.4475+36.855C35.1819+36.855+33.0959+37.6128+31.4163+38.8862C32.4514+34.8237+33.7053+30.0503+34.51+27.5737L34.51+27.5425C34.8498+26.3784+35.2522+25.2495+36.0413+24.4487C36.8303+23.648+38.0413+23.0425+40.3538+23.0425ZM52.4475+36.855C50.2483+36.855+48.4475+38.6558+48.4475+40.855C48.4475+43.0542+50.2483+44.855+52.4475+44.855C54.6467+44.855+56.4475+43.0542+56.4475+40.855C56.4475+38.6558+54.6467+36.855+52.4475+36.855ZM37.4475+38.855C41.8772+38.855+45.4475+42.4253+45.4475+46.855C45.4475+51.2847+41.8772+54.855+37.4475+54.855C33.0178+54.855+29.4475+51.2847+29.4475+46.855C29.4475+46.2534+29.51+45.6675+29.635+45.105C29.8342+44.9527+29.967+44.73+30.01+44.48C30.01+44.48+30.2717+43.4019+30.3225+43.1987C31.6467+40.6167+34.3381+38.855+37.4475+38.855ZM52.4475+38.855C53.5647+38.855+54.4475+39.7378+54.4475+40.855C54.4475+41.9722+53.5647+42.855+52.4475+42.855C51.3303+42.855+50.4475+41.9722+50.4475+40.855C50.4475+39.7378+51.3303+38.855+52.4475+38.855ZM67.4475+38.855C70.9319+38.855+73.8772+41.0698+74.9788+44.1675C74.9827+44.1831+75.0725+44.5112+75.0725+44.5112C75.0998+44.6128+75.1428+44.7066+75.1975+44.7925C75.3733+45.4487+75.4475+46.1402+75.4475+46.855C75.4475+51.2847+71.8772+54.855+67.4475+54.855C63.0178+54.855+59.4475+51.2847+59.4475+46.855C59.4475+42.4253+63.0178+38.855+67.4475+38.855ZM32.3538+45.8237C32.3108+45.8316+32.2678+45.8433+32.2288+45.855C31.7639+45.9605+31.4358+46.3784+31.4475+46.855C31.4475+50.1792+34.1233+52.855+37.4475+52.855C37.8069+52.8589+38.1428+52.6714+38.3264+52.3589C38.5061+52.0464+38.5061+51.6636+38.3264+51.3511C38.1428+51.0386+37.8069+50.8511+37.4475+50.855C35.1702+50.855+33.4475+49.1323+33.4475+46.855C33.4592+46.5659+33.342+46.2886+33.135+46.0933C32.9241+45.8941+32.6389+45.7964+32.3538+45.8237ZM63.3538+45.8237C63.3108+45.8316+63.2678+45.8433+63.2288+45.855C62.7639+45.9605+62.4358+46.3784+62.4475+46.855C62.4475+50.1792+65.1233+52.855+68.4475+52.855C68.8069+52.8589+69.1428+52.6714+69.3264+52.3589C69.5061+52.0464+69.5061+51.6636+69.3264+51.3511C69.1428+51.0386+68.8069+50.8511+68.4475+50.855C66.1702+50.855+64.4475+49.1323+64.4475+46.855C64.4592+46.5659+64.342+46.2886+64.135+46.0933C63.9241+45.8941+63.6389+45.7964+63.3538+45.8237Z" opacity="1" fill="url(#LinearGradient)"/>
</g>
</svg>
