<?xml version="1.0" encoding="UTF-8" standalone="no"?> <!-- Created with Vectornator for iOS (http://vectornator.io/) --><!DOCTYPE svg PUBLIC "-//W3C//DTD SVG 1.1//EN" "http://www.w3.org/Graphics/SVG/1.1/DTD/svg11.dtd">
<svg height="100%" style="fill-rule:evenodd;clip-rule:evenodd;stroke-linecap:round;stroke-linejoin:round;" xmlns:xlink="http://www.w3.org/1999/xlink" xmlns="http://www.w3.org/2000/svg" xml:space="preserve" width="100%" xmlns:vectornator="http://vectornator.io" version="1.1" viewBox="0 0 104.895 73.71">
<metadata>
<vectornator:setting key="DisplayWhiteBackground" value="0"/>
<vectornator:setting key="RulersVisible" value="1"/>
<vectornator:setting key="GridSpacing" value="36"/>
<vectornator:setting key="Units" value="Millimeters"/>
<vectornator:setting key="DynamicGuides" value="1"/>
<vectornator:setting key="SnapToPoints" value="0"/>
<vectornator:setting key="SnapToGrid" value="0"/>
<vectornator:setting key="SnapToGuides" value="1"/>
<vectornator:setting key="ShowGrid" value="0"/>
<vectornator:setting key="SnapToEdges" value="0"/>
</metadata>
<defs/>
<g id="Layer 1" vectornator:layerName="Layer 1">
<g opacity="1">
<path d="M50.6862+14.3988C48.4406+14.3988+46.2827+15.191+44.6095+16.6881C44.0811+17.1724+43.9936+18.0096+44.4779+18.5379C44.9623+19.0663+45.7985+19.1539+46.3269+18.6695C47.5158+17.6128+49.0571+17.0407+50.6862+17.0407C54.3409+17.0407+57.291+19.9908+57.291+23.6455C57.291+27.3001+54.3409+30.2502+50.6862+30.2502L40.1186+30.2502C39.3701+30.2502+38.7976+30.8226+38.7976+31.5712C38.7976+32.3197+39.3701+32.8921+40.1186+32.8921L50.6862+32.8921C55.7939+32.8921+59.9329+28.7531+59.9329+23.6455C59.9329+18.5378+55.7939+14.3988+50.6862+14.3988Z" opacity="1" fill="#333333"/>
<path d="M70.9409+19.6826C70.1923+19.6826+69.6199+20.255+69.6199+21.0036C69.6199+21.7521+70.1923+22.3245+70.9409+22.3245C74.5955+22.3245+77.5456+25.2746+77.5456+28.9293C77.5456+32.5839+74.5955+35.534+70.9409+35.534L30.4316+35.534C29.6831+35.534+29.1106+36.1065+29.1106+36.855C29.1106+37.6035+29.6831+38.176+30.4316+38.176L70.9409+38.176C76.0485+38.176+80.1875+34.037+80.1875+28.9293C80.1875+23.8216+76.0485+19.6826+70.9409+19.6826Z" opacity="1" fill="#333333"/>
<path d="M34.8348+30.2502C34.1052+30.2502+33.5138+30.8416+33.5138+31.5712C33.5138+32.3007+34.1052+32.8921+34.8348+32.8921C35.5643+32.8921+36.1557+32.3007+36.1557+31.5712C36.1557+30.8416+35.5643+30.2502+34.8348+30.2502Z" opacity="1" fill="#333333"/>
<path d="M26.0284+40.8179C25.2799+40.8179+24.7075+41.3903+24.7075+42.1388C24.7075+42.8874+25.2799+43.4598+26.0284+43.4598L37.4767+43.4598C38.2252+43.4598+38.7976+42.8874+38.7976+42.1388C38.7976+41.3903+38.2252+40.8179+37.4767+40.8179L26.0284+40.8179Z" opacity="1" fill="#333333"/>
<path d="M48.0443+40.8179C47.2958+40.8179+46.7234+41.3903+46.7234+42.1388C46.7234+42.8874+47.2958+43.4598+48.0443+43.4598L59.4926+43.4598C63.1472+43.4598+66.0974+46.4099+66.0974+50.0645C66.0974+53.7192+63.1472+56.6693+59.4926+56.6693C57.9515+56.6693+56.4546+56.1408+55.2657+55.1721C54.6933+54.6877+53.8562+54.7759+53.4159+55.3484C52.9755+55.9208+53.0197+56.757+53.5922+57.1973C55.2654+58.5623+57.335+59.3112+59.4926+59.3112C64.6003+59.3112+68.7393+55.1722+68.7393+50.0645C68.7393+44.9569+64.6003+40.8179+59.4926+40.8179L48.0443+40.8179Z" opacity="1" fill="#333333"/>
</g>
</g>
</svg>
