<?xml version="1.0" encoding="UTF-8" standalone="no"?> <!-- Created with Vectornator for iOS (http://vectornator.io/) --><!DOCTYPE svg PUBLIC "-//W3C//DTD SVG 1.1//EN" "http://www.w3.org/Graphics/SVG/1.1/DTD/svg11.dtd">
<svg height="100%" style="fill-rule:evenodd;clip-rule:evenodd;stroke-linecap:round;stroke-linejoin:round;" xmlns:xlink="http://www.w3.org/1999/xlink" xmlns="http://www.w3.org/2000/svg" xml:space="preserve" width="100%" xmlns:vectornator="http://vectornator.io" version="1.1" viewBox="0 0 104.895 73.71">
<metadata>
<vectornator:setting key="DisplayWhiteBackground" value="0"/>
<vectornator:setting key="RulersVisible" value="1"/>
<vectornator:setting key="SnapToEdges" value="0"/>
<vectornator:setting key="Units" value="Millimeters"/>
<vectornator:setting key="DynamicGuides" value="1"/>
<vectornator:setting key="SnapToPoints" value="0"/>
<vectornator:setting key="CMYKEnabledKey" value="0"/>
<vectornator:setting key="SnapToGrid" value="0"/>
<vectornator:setting key="SnapToGuides" value="1"/>
<vectornator:setting key="ShowGrid" value="0"/>
<vectornator:setting key="GridSpacing" value="36"/>
</metadata>
<defs>
<linearGradient y1="50.8314" id="LinearGradient" x1="37.1474" y2="19.2277" x2="63.3271" gradientUnits="userSpaceOnUse" gradientTransform="matrix(1 0 0 1 0 0)">
<stop stop-color="#0062ed" offset="0"/>
<stop stop-color="#f237d3" offset="0.501006"/>
<stop stop-color="#60a5f6" offset="1"/>
</linearGradient>
<linearGradient y1="34.9998" id="LinearGradient_2" x1="65.5939" y2="57.8318" x2="65.5939" gradientUnits="userSpaceOnUse" gradientTransform="matrix(1 0 0 1 0 0)">
<stop stop-color="#4ae3e4" offset="0"/>
<stop stop-color="#2b8af8" offset="1"/>
</linearGradient>
</defs>
<g id="Layer 1" vectornator:layerName="Layer 1">
<path d="M59.5451+53.3018C60.8221+55.2418+62.9984+56.5444+65.4676+56.5881C65.5088+56.5881+65.5499+56.5881+65.591+56.5881C68.7411+56.5881+71.5161+54.4915+72.5207+51.3362C73.6127+47.9112+71.7139+45.1105+69.702+42.1454C69.5941+41.9887+69.4888+41.832+69.3834+41.6752M69.3834+41.6752C69.905+39.9357+70.2057+38.1037+70.2057+36.1972C70.2057+31.8472+68.7385+27.8338+66.2796+24.622C66.4594+24.4884+66.6419+24.3496+66.8037+24.1903L67.1969+23.7947C67.7107+23.2833+67.7107+22.4483+67.1969+21.937L64.4065+19.1466C63.8952+18.6327+63.0601+18.6327+62.5462+19.1466L62.1403+19.5474C61.9219+19.7658+61.7317+20.0022+61.5621+20.2566C58.5611+18.2858+54.9819+17.1219+51.1303+17.1219C40.6137+17.1219+32.0549+25.6806+32.0549+36.1972C32.0549+46.7139+40.6137+55.2726+51.1303+55.2726C54.1519+55.2726+57.004+54.5583+59.5451+53.3018M51.1303+18.4374C54.7712+18.4374+58.1525+19.5525+60.9737+21.4411L58.6818+26.7906C58.5765+27.0373+58.633+27.325+58.8206+27.5126C58.9465+27.6385+59.116+27.7079+59.2882+27.7079C59.3756+27.7079+59.4629+27.6899+59.5477+27.6539L61.3155+26.8959C63.4378+29.2136+64.7045+32.171+64.9024+35.3339C64.8587+35.4058+64.8253+35.4855+64.8073+35.5703C64.2934+37.9984+62.8648+40.1079+61.4825+42.148C60.1978+44.0442+58.9824+45.8608+58.5405+47.8316C56.3976+49.2036+53.859+50.0104+51.1303+50.0104C43.5145+50.0104+37.3171+43.813+37.3171+36.1972C37.3171+28.5815+43.5145+22.384+51.1303+22.384C51.824+22.384+52.5178+22.4354+53.1961+22.5382C53.5661+22.5896+53.8924+22.3429+53.9464+21.9832C54.0003+21.6261+53.7511+21.2895+53.3914+21.2381C52.6514+21.125+51.8883+21.0685+51.1303+21.0685C42.7874+21.0685+36.0016+27.8543+36.0016+36.1972C36.0016+44.5401+42.7874+51.326+51.1303+51.326C53.7485+51.326+56.21+50.6502+58.3581+49.476C58.3761+50.419+58.5713+51.3183+58.9208+52.1456C56.5672+53.2993+53.9258+53.957+51.1303+53.957C41.3382+53.957+33.3705+45.9893+33.3705+36.1972C33.3705+26.4052+41.3382+18.4374+51.1303+18.4374ZM63.4738+20.0767L66.2667+22.8671L65.871+23.2576C65.5756+23.5557+65.2287+23.7895+64.8407+23.9565L60.5369+25.7988L62.3741+21.5104C62.5385+21.125+62.7723+20.7756+63.0704+20.4801L63.4738+20.0767ZM56.1689+21.9781C55.912+21.9909+55.6756+22.1528+55.5805+22.4072C55.4521+22.7489+55.6242+23.1266+55.9659+23.2551C56.4336+23.4298+56.8961+23.6302+57.3483+23.8563C57.4434+23.9051+57.5436+23.9283+57.6438+23.9283C57.8827+23.9283+58.114+23.7972+58.2322+23.566C58.394+23.2448+58.263+22.8465+57.9393+22.6821C57.4485+22.4354+56.9372+22.2119+56.4259+22.0192C56.3411+21.9884+56.2537+21.9755+56.1689+21.9781ZM51.1303+25.0151C50.7654+25.0151+50.4725+25.308+50.4725+25.6729L50.4725+28.304C50.4725+28.6688+50.7654+28.9617+51.1303+28.9617C51.4952+28.9617+51.7881+28.6688+51.7881+28.304L51.7881+25.6729C51.7881+25.308+51.4952+25.0151+51.1303+25.0151ZM65.1002+25.2746C67.4641+28.2937+68.8901+32.0759+68.8901+36.1972C68.8901+37.577+68.7205+38.9131+68.4199+40.203C67.5155+38.7538+66.7267+37.2378+66.3721+35.5703C66.3464+35.447+66.2847+35.3442+66.2153+35.2517C66.0072+31.9397+64.7328+28.8358+62.5899+26.3512L65.1002+25.2746ZM47.0167+25.8502C46.9293+25.8528+46.8445+25.8682+46.7623+25.9016C46.4257+26.0455+46.2715+26.4309+46.4128+26.7649L47.4406+29.1879C47.546+29.4397+47.7901+29.5887+48.047+29.5887C48.1344+29.5887+48.2191+29.5733+48.3039+29.5373C48.638+29.396+48.7947+29.008+48.6534+28.674L47.6256+26.251C47.5177+26.0018+47.271+25.8502+47.0167+25.8502ZM55.2439+25.8502C54.9896+25.8502+54.7429+26.0018+54.635+26.251L53.6072+28.674C53.4659+29.008+53.6226+29.396+53.9567+29.5373C54.0414+29.5733+54.1288+29.5887+54.2136+29.5887C54.4705+29.5887+54.7146+29.4397+54.82+29.1879L55.8477+26.7649C55.9916+26.4309+55.8349+26.0455+55.4983+25.9016C55.4161+25.8682+55.3313+25.8528+55.2439+25.8502ZM43.6893+28.0984C43.5223+28.0984+43.3527+28.1627+43.2242+28.2911C42.9673+28.5481+42.9673+28.9643+43.2242+29.2213L45.0845+31.0815C45.2129+31.21+45.3799+31.2742+45.5495+31.2742C45.7191+31.2742+45.8861+31.21+46.0146+31.0815C46.2715+30.8246+46.2715+30.4083+46.0146+30.1514L44.1543+28.2911C44.0259+28.1627+43.8563+28.0984+43.6893+28.0984ZM58.5713+28.0984C58.4043+28.0984+58.2347+28.1627+58.1063+28.2911L56.246+30.1514C55.9891+30.4083+55.9891+30.8246+56.246+31.0815C56.3745+31.21+56.5415+31.2742+56.7111+31.2742C56.8807+31.2742+57.0477+31.21+57.1761+31.0815L59.0364+29.2213C59.2933+28.9643+59.2933+28.5481+59.0364+28.2911C58.9079+28.1627+58.7383+28.0984+58.5713+28.0984ZM41.4462+31.4284C41.1892+31.4258+40.9451+31.5774+40.8372+31.8292C40.6959+32.1632+40.8501+32.5487+41.1841+32.6925L43.607+33.7203C43.6918+33.7537+43.7792+33.7717+43.864+33.7717C44.1209+33.7717+44.365+33.6201+44.4704+33.3709C44.6143+33.0343+44.4575+32.6489+44.1209+32.5075L41.698+31.4798C41.6157+31.4438+41.531+31.4284+41.4462+31.4284ZM60.8144+31.4284C60.7296+31.4284+60.6449+31.4438+60.5626+31.4798L58.1397+32.5075C57.8031+32.6489+57.6489+33.0343+57.7902+33.3709C57.8956+33.6201+58.1397+33.7717+58.3966+33.7717C58.484+33.7717+58.5688+33.7537+58.6536+33.7203L61.0765+32.6925C61.4105+32.5487+61.5673+32.1632+61.426+31.8292C61.318+31.5774+61.0714+31.4258+60.8144+31.4284ZM47.1837+32.9084C46.8188+32.9084+46.5259+33.2013+46.5259+33.5661C46.5259+33.931+46.8188+34.2239+47.1837+34.2239L49.157+34.2239L49.157+35.5395L47.8414+35.5395C47.4766+35.5395+47.1837+35.8324+47.1837+36.1972C47.1837+36.5621+47.4766+36.855+47.8414+36.855L49.157+36.855L49.157+38.1705L47.1837+38.1705C46.8188+38.1705+46.5259+38.4635+46.5259+38.8283C46.5259+39.1932+46.8188+39.4861+47.1837+39.4861L49.157+39.4861C49.8816+39.4861+50.4725+38.8951+50.4725+38.1705L50.4725+36.855C50.4725+36.6135+50.4032+36.3925+50.2901+36.1972C50.4032+36.002+50.4725+35.781+50.4725+35.5395L50.4725+34.2239C50.4725+33.4993+49.8816+32.9084+49.157+32.9084L47.1837+32.9084ZM52.4458+32.9084C52.081+32.9084+51.7881+33.2013+51.7881+33.5661C51.7881+33.931+52.081+34.2239+52.4458+34.2239L54.432+34.2239L54.432+38.8283C54.432+39.1932+54.7275+39.4861+55.0898+39.4861C55.4546+39.4861+55.7475+39.1932+55.7475+38.8283L55.7475+34.2239C55.7475+33.4993+55.1591+32.9084+54.432+32.9084L52.4458+32.9084ZM40.606+35.5395C40.2411+35.5395+39.9482+35.8324+39.9482+36.1972C39.9482+36.5621+40.2411+36.855+40.606+36.855L43.237+36.855C43.6019+36.855+43.8948+36.5621+43.8948+36.1972C43.8948+35.8324+43.6019+35.5395+43.237+35.5395L40.606+35.5395ZM59.0235+35.5395C58.6587+35.5395+58.3658+35.8324+58.3658+36.1972C58.3658+36.5621+58.6587+36.855+59.0235+36.855L61.6546+36.855C62.0195+36.855+62.3124+36.5621+62.3124+36.1972C62.3124+35.8324+62.0195+35.5395+61.6546+35.5395L59.0235+35.5395ZM65.591+37.559C66.3181+39.4989+67.4795+41.2153+68.6126+42.8854C70.5191+45.6938+72.1661+48.1219+71.2668+50.9354C70.4369+53.5408+68.1655+55.2726+65.591+55.2726C65.555+55.2726+65.5216+55.2726+65.4882+55.2726C62.279+55.2161+59.6685+52.5593+59.6685+49.3449C59.6685+47.1686+61.0791+45.09+62.5693+42.8854C63.7025+41.2153+64.8638+39.5015+65.591+37.559ZM43.8614+38.6228C43.7766+38.6253+43.6893+38.6407+43.607+38.6741L41.1841+39.7019C40.8501+39.8458+40.6933+40.2312+40.8346+40.5652C40.9426+40.817+41.1867+40.9661+41.441+40.9661C41.5284+40.9661+41.6157+40.9507+41.698+40.9147L44.1209+39.8869C44.4575+39.7456+44.6117+39.3602+44.4704+39.0236C44.3625+38.7744+44.1184+38.6228+43.8614+38.6228ZM44.5526+43.4327C44.1877+43.4327+43.8948+43.7256+43.8948+44.0905C43.8948+44.4553+44.1877+44.7482+44.5526+44.7482L57.708+44.7482C58.0729+44.7482+58.3658+44.4553+58.3658+44.0905C58.3658+43.7256+58.0729+43.4327+57.708+43.4327L44.5526+43.4327ZM47.1837+46.0638C46.8188+46.0638+46.5259+46.3567+46.5259+46.7216C46.5259+47.0864+46.8188+47.3793+47.1837+47.3793L55.0769+47.3793C55.4418+47.3793+55.7347+47.0864+55.7347+46.7216C55.7347+46.3567+55.4418+46.0638+55.0769+46.0638L47.1837+46.0638Z" opacity="1" fill="url(#LinearGradient)"/>
<path d="M65.5901+34.9998C66.5274+37.5003+68.0243+39.7126+69.4849+41.8653C71.9423+45.4852+74.0652+48.6149+72.906+52.2414C71.8363+55.5996+68.9086+57.8318+65.5901+57.8318C65.5438+57.8318+65.5007+57.8318+65.4576+57.8318C61.3211+57.7589+57.9563+54.3344+57.9563+50.1913C57.9563+47.3862+59.7745+44.7069+61.6954+41.8653C63.1559+39.7126+64.6529+37.5036+65.5901+34.9998Z" opacity="1" fill="url(#LinearGradient_2)"/>
</g>
</svg>
